<svg width="59" height="48" viewBox="0 0 59 48" fill="none" xmlns="http://www.w3.org/2000/svg">
  <path
    d="M0.0578613 13.2437V22.0886V30.9335H1.96321H3.86889V22.0886V16.5722H6.08835C7.58287 16.5722 8.04171 16.6311 8.57948 16.8932C9.97435 17.5731 10.5359 19.6328 9.76058 21.2262C9.5108 21.7395 9.14113 22.0775 8.50219 22.3767C8.07996 22.5744 8.05918 22.5768 6.40377 22.5994L4.73194 22.6221V24.2768V25.9318L6.79944 25.9032C8.76839 25.876 8.90072 25.8656 9.58396 25.6819C9.97853 25.5758 10.6378 25.3245 11.0489 25.1237C11.6765 24.8172 11.8917 24.6644 12.3899 24.1709C12.8682 23.697 13.0401 23.4648 13.2772 22.972C13.6406 22.217 13.843 21.3858 13.9334 20.277C14.0872 18.3901 13.7256 16.8755 12.8151 15.5911C12.3829 14.9814 11.936 14.6091 11.1841 14.2327C9.83868 13.5592 8.73325 13.3206 6.40377 13.2838L3.86889 13.2437H1.96321H0.0578613Z"
    fill="#329AE9"
  />
  <path
    d="M56.6467 23.4736V24.4601C57.1206 24.4157 58.8728 24.1762 58.9231 24.1451C59.0132 24.0894 58.9939 23.8563 58.8925 23.7751C58.843 23.7355 58.2646 23.646 57.6072 23.576L56.6467 23.4736Z"
    fill="#329AE9"
    fill-opacity="0.580392"
  />
  <path
    d="M24.392 17.0646C24.3476 17.0609 24.2854 17.074 24.22 17.089L24.4554 17.0823C24.4367 17.0728 24.416 17.0666 24.392 17.0646ZM16.3783 23.1008C16.23 23.123 15.8333 23.1574 15.1867 23.2265L14.011 23.3522L13.8281 23.6448C13.7275 23.8058 13.5545 24.0532 13.444 24.1942L13.2434 24.4504L15.0546 24.663C15.4992 24.713 13.4874 24.4935 16.3075 24.8405C16.3808 23.1116 16.3051 24.8297 16.3783 23.1008Z"
    fill="#329AE9"
    fill-opacity="0.580392"
  />
  <path
    d="M16.9082 27.8762C16.9254 23.0205 16.9082 27.8762 16.9254 23.0205V20.1892V17.358H18.7591H20.5928V18.1807C20.5928 18.6623 20.6232 19.0222 20.6661 19.0488C20.7065 19.0737 20.8764 18.9534 21.0437 18.7815C21.7271 18.0793 22.8436 17.4521 23.8957 17.1795C24.6895 16.9738 24.6198 16.818 24.6198 18.7962V20.522L24.2063 20.5232C23.672 20.5249 22.8915 20.6915 22.4708 20.8938C21.998 21.1212 21.4205 21.7506 21.1335 22.3514C20.67 23.3218 20.6463 23.5516 20.6124 27.4073L20.5819 30.877H18.7544H16.927L16.9082 27.8762Z"
    fill="#329AE9"
  />
  <path
    d="M24.0085 25.7304C22.6242 25.5592 21.471 25.4174 21.4458 25.4154C21.2648 25.4004 21.3847 23.6651 21.6079 23.0685C21.684 22.865 21.8023 22.6507 21.8706 22.5921C21.9574 22.5178 22.6788 22.4061 24.2601 22.2219C25.506 22.0768 26.5615 21.9585 26.6058 21.959C26.6626 21.9597 26.6562 22.0813 26.5839 22.3734C26.373 23.2257 26.3853 25.005 26.6083 25.897C26.6306 25.986 26.621 26.0549 26.587 26.0502C26.5531 26.0455 25.3927 25.9016 24.0085 25.7304Z"
    fill="#329AE9"
    fill-opacity="0.58"
  />
  <path
    d="M27.1368 23.6319C27.137 23.6022 27.1852 23.2815 27.244 22.919C27.4757 21.4903 28.0821 20.2682 29.0994 19.1797C30.2242 17.9761 31.8724 17.1367 33.4645 16.9565L33.8961 16.9077V18.6006V20.2934L33.604 20.3428C33.1162 20.4252 32.3817 20.8417 31.9323 21.2908C31.4471 21.7756 31.0227 22.56 30.8795 23.2364L30.7843 23.6858H28.9604C27.9573 23.6858 27.1367 23.6616 27.1368 23.6319Z"
    fill="#329AE9"
  />
  <path
    d="M26.9857 17.165C26.2975 16.189 25.6968 15.3239 25.6509 15.2426C25.5513 15.0662 25.6458 14.8408 25.8194 14.8408C25.9302 14.8408 29.7899 17.4962 29.7949 17.5759C29.7962 17.597 29.7005 17.6715 29.5822 17.7413C29.464 17.8112 29.119 18.1094 28.8156 18.404C28.5123 18.6986 28.258 18.9397 28.2506 18.9397C28.2432 18.9397 27.674 18.1411 26.9857 17.165Z"
    fill="#329AE9"
    fill-opacity="0.58"
  />
  <path
    d="M32.1337 16.3229C32.1518 16.2395 32.5886 12.6441 33.1044 8.33312C33.6202 4.02211 34.0665 0.414022 34.0963 0.315146C34.1725 0.0621074 34.5224 0.019404 34.5754 0.256681C34.6385 0.539217 36.3378 16.3064 36.3083 16.3359C36.293 16.3512 36.0919 16.3209 35.8613 16.2687C35.1949 16.1177 33.3422 16.1536 32.6568 16.3308L32.1007 16.4746L32.1337 16.3229Z"
    fill="#329AE9"
    fill-opacity="0.58"
  />
  <path
    d="M40.3321 18.932C40.1344 18.6909 39.7911 18.3415 39.5694 18.1555L39.1663 17.8172L41.2138 16.3831C42.3399 15.5944 43.3067 14.9228 43.3622 14.8907C43.5128 14.8036 43.7478 14.904 43.7478 15.0554C43.7478 15.1781 40.8552 19.3139 40.7421 19.3529C40.7144 19.3625 40.5299 19.1731 40.3321 18.932Z"
    fill="#329AE9"
    fill-opacity="0.58"
  />
  <path
    d="M37.7521 23.2007C37.5674 22.4522 37.2692 21.8912 36.7758 21.3637C36.2944 20.8491 35.594 20.4345 35.0512 20.3428L34.759 20.2934V18.6006V16.9077L35.1907 16.9565C36.2312 17.0743 37.4381 17.529 38.3631 18.152C38.9822 18.5689 39.9044 19.5066 40.3269 20.149C40.9118 21.0381 41.338 22.225 41.4742 23.3443L41.5158 23.6858H39.6938H37.8718L37.7521 23.2007Z"
    fill="#329AE9"
  />
  <path
    d="M34.759 29.5565C34.759 27.8976 34.7626 27.8567 34.9047 27.8567C35.1575 27.8567 35.8128 27.5931 36.1686 27.3483C36.6779 26.9979 37.092 26.5331 37.3723 25.9971C37.599 25.5638 37.673 25.3519 37.8094 24.7466L37.8539 24.5488H39.6794H41.5049L41.469 24.8544C41.4014 25.4286 41.16 26.3542 40.9397 26.8834C40.4766 27.9959 39.4063 29.3151 38.4116 29.9995C37.5458 30.5951 36.1894 31.1098 35.2247 31.2086L34.759 31.2563V29.5565Z"
    fill="#329AE9"
  />
  <path
    d="M32.8662 31.1195C31.5725 30.8419 30.3832 30.2213 29.4537 29.3387C28.1194 28.0717 27.4354 26.7243 27.1771 24.8544L27.1349 24.5488H28.9662H30.7975L30.8463 24.8185C30.9901 25.6122 31.5671 26.633 32.1348 27.0981C32.5576 27.4446 33.2057 27.7691 33.5905 27.827L33.8961 27.873V29.5547V31.2365L33.6265 31.2306C33.4782 31.2274 33.136 31.1774 32.8662 31.1195Z"
    fill="#329AE9"
  />
  <path
    d="M25.5806 32.9263C25.5578 32.867 25.5585 32.768 25.5821 32.7064C25.6495 32.5308 28.0783 29.0791 28.1345 29.0791C28.1621 29.0791 28.3069 29.2252 28.4562 29.4039C28.6055 29.5825 28.9195 29.8883 29.154 30.0834L29.5804 30.4383L27.737 31.7362C26.7232 32.4501 25.8325 33.0342 25.7578 33.0342C25.6831 33.0342 25.6034 32.9856 25.5806 32.9263Z"
    fill="#329AE9"
    fill-opacity="0.58"
  />
  <path
    d="M34.0774 47.7579C34.0609 47.7085 33.5598 44.1247 32.9639 39.7939C32.368 35.4631 31.8658 31.8535 31.8479 31.7725C31.8157 31.6269 31.8231 31.6273 32.4782 31.8032C33.0659 31.961 33.284 31.9811 34.3996 31.9798C35.4379 31.9784 35.7585 31.9521 36.233 31.8289C36.5492 31.7467 36.8103 31.685 36.8131 31.6917C36.816 31.6985 36.3085 35.3121 35.6853 39.722C35.0621 44.1319 34.5503 47.7642 34.5478 47.7939C34.5402 47.886 34.1091 47.853 34.0774 47.7579Z"
    fill="#329AE9"
    fill-opacity="0.58"
  />
  <path
    d="M41.4901 31.6305C40.3867 30.8617 39.4697 30.2183 39.4522 30.2008C39.4347 30.1833 39.5582 30.0451 39.7267 29.8937C39.8951 29.7423 40.2199 29.3839 40.4485 29.0971L40.864 28.5757L41.0389 28.8094C41.8877 29.9435 43.8197 32.6937 43.8197 32.7678C43.8197 32.8818 43.6752 33.0353 43.5716 33.0313C43.5301 33.0298 42.5934 32.3994 41.4901 31.6305Z"
    fill="#329AE9"
    fill-opacity="0.58"
  />
  <path
    d="M42.0812 25.6891C42.241 25.0566 42.2385 23.1144 42.0771 22.464C42.0133 22.2072 41.9749 21.9834 41.9916 21.9666C42.0084 21.9499 42.8639 22.028 43.8929 22.1402L45.7637 22.3442L45.3916 22.5476C44.7979 22.8723 44.2768 23.2988 43.9582 23.7208C43.6076 24.1851 43.2469 25.0714 43.192 25.6034C43.1477 26.0324 43.1563 26.0267 42.4433 26.0982L41.9658 26.1461L42.0812 25.6891Z"
    fill="#329AE9"
    fill-opacity="0.58"
  />
  <path
    d="M47.7278 31.0532C46.5448 30.7937 45.4606 30.192 44.8758 29.4705C43.6752 27.9893 43.4998 26.0236 44.4269 24.4416C44.8322 23.75 45.5795 23.1068 46.4533 22.6975L46.8759 22.4996L49.195 22.4771L51.5141 22.4546V23.7175V24.9805H50.2952C48.7552 24.9805 48.4351 25.0449 48.0271 25.4372C47.6283 25.8208 47.5066 26.2184 47.6196 26.7688C47.7155 27.2358 47.9731 27.5926 48.355 27.7875C49.0193 28.1264 50.4996 28.1062 51.1378 27.7495C51.3152 27.6503 51.4724 27.5692 51.4872 27.5692C51.502 27.5692 51.5141 28.179 51.5141 28.9244C51.5141 30.4681 51.5573 30.3548 50.831 30.7158C49.9564 31.1505 48.7627 31.2802 47.7278 31.0532Z"
    fill="#329AE9"
  />
  <path
    d="M52.3615 26.1129C52.3385 20.8364 52.3843 21.2596 51.7695 20.6448C51.2517 20.127 50.8823 19.9811 50.1119 19.9901C49.0617 20.0024 47.6065 20.4513 46.6688 21.0521C46.4363 21.2011 46.2204 21.2965 46.189 21.264C46.0555 21.1259 44.5425 19.043 44.5408 18.9948C44.5376 18.9092 45.2845 18.3487 45.8867 17.9846C46.4925 17.6184 47.4156 17.2196 48.0984 17.0289C48.7594 16.8444 50.75 16.8032 51.5152 16.9582C53.0721 17.2737 54.0325 17.7179 54.7917 18.4736C55.7176 19.3951 55.9687 20.1358 56.0248 22.1112L56.0628 23.4489C56.0655 24.3158 56.045 25.8613 56.0444 27.641V30.805H54.2132H52.382L52.3615 26.1129Z"
    fill="#329AE9"
  />
  <path d="M0 13.1392L3.9869 13.1397L0 13.1392ZM0 30.9145H3.9869H0ZM0 13.1392V30.9145V13.1392Z" fill="#00A100" />
</svg>
